<?xml version="1.0" encoding="UTF-8" standalone="no"?>
<!DOCTYPE svg PUBLIC "-//W3C//DTD SVG 1.1//EN" "http://www.w3.org/Graphics/SVG/1.1/DTD/svg11.dtd">
<svg width="100%" height="100%" viewBox="0 0 2000 2000" version="1.1" xmlns="http://www.w3.org/2000/svg" style="fill-rule:evenodd;clip-rule:evenodd;stroke-linejoin:round;stroke-miterlimit:2;">
    <g transform="matrix(4.52342,-6.20354,-6.20354,-4.52342,3090.59,4703.23)">
        <path d="M251.194,590.6L251.194,541.64L265.594,541.64C277.882,541.64 287.626,538.232 294.826,531.416C302.026,524.6 305.626,515.528 305.626,504.2C305.626,492.872 302.026,483.8 294.826,476.984C287.626,470.168 277.786,466.76 265.306,466.76L229.306,466.76L229.306,442.28L265.306,442.28C278.746,442.28 290.41,444.824 300.298,449.912C310.186,455 317.866,462.152 323.338,471.368C328.81,480.584 331.546,491.528 331.546,504.2C331.546,515.144 329.242,524.984 324.634,533.72C320.026,542.456 313.642,549.416 305.482,554.6C297.322,559.784 287.866,562.664 277.114,563.24L277.114,590.6L251.194,590.6ZM259.546,653.96C254.554,653.96 250.426,652.328 247.162,649.064C243.898,645.8 242.266,641.672 242.266,636.68C242.266,631.688 243.898,627.56 247.162,624.296C250.426,621.032 254.554,619.4 259.546,619.4L268.186,619.4C273.754,619.4 278.026,620.984 281.002,624.152C283.978,627.32 285.466,631.4 285.466,636.392C285.466,641.384 283.834,645.56 280.57,648.92C277.306,652.28 273.178,653.96 268.186,653.96L259.546,653.96Z" style="fill:rgb(243,169,84);fill-rule:nonzero;"/>
    </g>
    <g transform="matrix(-4.52342,6.20354,6.20354,4.52342,-1090.59,-2703.23)">
        <path d="M251.194,590.6L251.194,541.64L265.594,541.64C277.882,541.64 287.626,538.232 294.826,531.416C302.026,524.6 305.626,515.528 305.626,504.2C305.626,492.872 302.026,483.8 294.826,476.984C287.626,470.168 277.786,466.76 265.306,466.76L229.306,466.76L229.306,442.28L265.306,442.28C278.746,442.28 290.41,444.824 300.298,449.912C310.186,455 317.866,462.152 323.338,471.368C328.81,480.584 331.546,491.528 331.546,504.2C331.546,515.144 329.242,524.984 324.634,533.72C320.026,542.456 313.642,549.416 305.482,554.6C297.322,559.784 287.866,562.664 277.114,563.24L277.114,590.6L251.194,590.6ZM259.546,653.96C254.554,653.96 250.426,652.328 247.162,649.064C243.898,645.8 242.266,641.672 242.266,636.68C242.266,631.688 243.898,627.56 247.162,624.296C250.426,621.032 254.554,619.4 259.546,619.4L268.186,619.4C273.754,619.4 278.026,620.984 281.002,624.152C283.978,627.32 285.466,631.4 285.466,636.392C285.466,641.384 283.834,645.56 280.57,648.92C277.306,652.28 273.178,653.96 268.186,653.96L259.546,653.96Z" style="fill:rgb(243,169,84);fill-rule:nonzero;"/>
    </g>
</svg>
